<?xml version="1.0" encoding="UTF-8" standalone="no"?>
<!-- Created with Inkscape (http://www.inkscape.org/) -->

<svg
   xmlns:dc="http://purl.org/dc/elements/1.1/"
   xmlns:cc="http://creativecommons.org/ns#"
   xmlns:rdf="http://www.w3.org/1999/02/22-rdf-syntax-ns#"
   xmlns:svg="http://www.w3.org/2000/svg"
   xmlns="http://www.w3.org/2000/svg"
   xmlns:xlink="http://www.w3.org/1999/xlink"
   xmlns:sodipodi="http://sodipodi.sourceforge.net/DTD/sodipodi-0.dtd"
   xmlns:inkscape="http://www.inkscape.org/namespaces/inkscape"
   inkscape:version="0.91 r13725"
   version="1.1"
   id="svg2"
   viewBox="0 0 1724.2858 1085.7142"
   height="306.41269mm"
   width="486.63177mm"
   sodipodi:docname="dessin-rose.svg">
  <sodipodi:namedview
     inkscape:window-maximized="1"
     inkscape:window-y="24"
     inkscape:window-x="65"
     inkscape:window-height="1416"
     inkscape:window-width="2495"
     inkscape:object-nodes="false"
     showgrid="false"
     inkscape:current-layer="layer1"
     inkscape:document-units="px"
     inkscape:cy="1030.3984"
     inkscape:cx="664.07403"
     inkscape:zoom="0.49497475"
     inkscape:pageshadow="2"
     inkscape:pageopacity="0.0"
     borderopacity="1.0"
     bordercolor="#666666"
     pagecolor="#ffffff"
     id="base"
     fit-margin-top="0"
     fit-margin-left="0"
     fit-margin-right="0"
     fit-margin-bottom="0" />
  <defs
     id="defs4">
    <linearGradient
       inkscape:collect="always"
       id="linearGradient4471">
      <stop
         style="stop-color:#ffffff;stop-opacity:1;"
         offset="0"
         id="stop4473" />
      <stop
         style="stop-color:#ffffff;stop-opacity:0;"
         offset="1"
         id="stop4475" />
    </linearGradient>
    <linearGradient
       inkscape:collect="always"
       xlink:href="#linearGradient4471"
       id="linearGradient4477"
       x1="300.03555"
       y1="851.2746"
       x2="233.97664"
       y2="816.54425"
       gradientUnits="userSpaceOnUse" />
  </defs>
  <metadata
     id="metadata7">
    <rdf:RDF>
      <cc:Work
         rdf:about="">
        <dc:format>image/svg+xml</dc:format>
        <dc:type
           rdf:resource="http://purl.org/dc/dcmitype/StillImage" />
        <dc:title></dc:title>
      </cc:Work>
    </rdf:RDF>
  </metadata>
  <g
     inkscape:label="Calque 1"
     inkscape:groupmode="layer"
     id="layer1"
     transform="translate(547.14288,-89.505058)">
    <rect
       style="opacity:1;fill:#e36f76;fill-opacity:1;stroke:none;stroke-width:3.79999995;stroke-linecap:round;stroke-linejoin:miter;stroke-miterlimit:4;stroke-dasharray:7.6, 15.19999999999999929;stroke-dashoffset:0;stroke-opacity:1"
       id="rect4173"
       width="1724.2858"
       height="1085.7142"
       x="-547.14288"
       y="89.505058" />
    <path
       style="opacity:0.1;fill:#000000;fill-opacity:1;fill-rule:evenodd;stroke:none;stroke-width:1px;stroke-linecap:butt;stroke-linejoin:miter;stroke-opacity:1"
       d="M 536.72852,382.08398 411.67773,648.59375 357.4375,594.35352 236.21875,590.31445 203.89258,612.53711 215.98633,624.63086 93.271484,553.78125 237.76953,698.2793 l -16.42383,14.26367 462.67578,462.67583 493.12112,0 0,-152.7208 -640.41408,-640.41402 z"
       id="path4424"
       inkscape:connector-curvature="0" />
    <path
       style="fill:#999999;fill-rule:evenodd;stroke:none;stroke-width:1px;stroke-linecap:butt;stroke-linejoin:miter;stroke-opacity:1"
       d="M 221.34495,712.5423 357.43659,594.35446 236.21829,590.31385 203.89341,612.5372 Z"
       id="path4166"
       inkscape:connector-curvature="0" />
    <path
       style="opacity:1;fill:#f2f2f2;fill-opacity:1;stroke:none;stroke-width:2;stroke-linecap:round;stroke-linejoin:miter;stroke-miterlimit:4;stroke-dasharray:none;stroke-dashoffset:0;stroke-opacity:1"
       d="M 536.7291,382.08475 378.81214,718.6396 93.270615,553.78212 Z"
       id="rect4136"
       inkscape:connector-curvature="0"
       sodipodi:nodetypes="cccc" />
    <path
       inkscape:connector-curvature="0"
       style="opacity:1;fill:#cccccc;fill-opacity:1;stroke:none;stroke-width:2;stroke-linecap:round;stroke-linejoin:miter;stroke-miterlimit:4;stroke-dasharray:none;stroke-dashoffset:0;stroke-opacity:1"
       d="m 536.72938,382.08505 -371.72461,213.11328 56.33985,117.34375 0,-84.8164 315.38477,-245.64063 z"
       id="path4141" />
    <g
       id="g4479">
      <path
         id="path4169"
         d="m 257.18555,816.73828 -0.0781,3.79883 0.10547,0.002 2.34766,0.18946 2.32617,0.32421 2.30273,0.44922 0.0117,0.004 0.0469,0.008 0.16406,-0.83984 0.72266,-2.85156 -0.0547,-0.0137 -0.0488,-0.0137 -0.0527,-0.01 -2.42188,-0.47461 -0.0527,-0.0117 -0.0527,-0.006 -2.43945,-0.33789 -0.0527,-0.008 -0.0566,-0.006 -2.45507,-0.19532 -0.0566,-0.004 -0.0566,-0.002 -0.14843,-0.002 z m -15.66016,2.29297 -2.10742,0.79883 -0.0586,0.0234 -0.0566,0.0254 -2.40625,1.09961 -0.0566,0.0254 -0.0547,0.0293 -2.37891,1.28125 1.80273,3.34571 2.3125,-1.24805 2.3125,-1.05664 2.03907,-0.77149 -1.34766,-3.55273 z m 38.19336,4.61133 -1.9668,3.25195 1.88282,1.13867 2,1.33399 0.002,0 1.97851,1.45117 0.01,0.008 0.21289,0.16992 2.38281,-2.96093 -0.22265,-0.17774 -0.0332,-0.0273 -0.0351,-0.0234 -2.04492,-1.50195 -0.0352,-0.0274 -0.0352,-0.0215 -2.10547,-1.4082 -0.0351,-0.0234 -0.0371,-0.0234 -1.91797,-1.1582 z m 17.50977,15.51953 -3.06641,2.24609 1.35547,1.85157 1.34961,2.02539 1.23828,2.05468 0.0117,0.0215 0.0918,0.16601 3.3418,-1.80859 -0.10156,-0.1875 -0.0215,-0.0371 -0.0234,-0.0391 -1.30078,-2.16211 -0.0215,-0.0371 -0.0234,-0.0371 -1.40429,-2.10742 -0.0234,-0.0332 -0.0254,-0.0352 -1.37695,-1.88086 z m 10.17382,21.03516 -3.67773,0.96289 0.35351,1.34179 0.01,0.0371 0.004,0.0195 0.40234,1.75977 0.004,0.0195 0.01,0.0371 0.35547,1.81836 0.002,0.002 0.29297,1.75977 0.0586,0.41797 3.76367,-0.50977 -0.0586,-0.41797 -0.004,-0.0293 -0.004,-0.0273 -0.31054,-1.875 -0.004,-0.0273 -0.008,-0.0293 -0.36914,-1.875 -0.006,-0.0293 -0.006,-0.0273 -0.42969,-1.87305 -0.006,-0.0273 -0.006,-0.0293 -0.36719,-1.39843 z"
         style="color:#000000;font-style:normal;font-variant:normal;font-weight:normal;font-stretch:normal;font-size:medium;line-height:normal;font-family:sans-serif;text-indent:0;text-align:start;text-decoration:none;text-decoration-line:none;text-decoration-style:solid;text-decoration-color:#000000;letter-spacing:normal;word-spacing:normal;text-transform:none;direction:ltr;block-progression:tb;writing-mode:lr-tb;baseline-shift:baseline;text-anchor:start;white-space:normal;clip-rule:nonzero;display:inline;overflow:visible;visibility:visible;opacity:1;isolation:auto;mix-blend-mode:normal;color-interpolation:sRGB;color-interpolation-filters:linearRGB;solid-color:#000000;solid-opacity:1;fill:url(#linearGradient4477);fill-opacity:1;fill-rule:evenodd;stroke:none;stroke-width:3.79999995;stroke-linecap:butt;stroke-linejoin:miter;stroke-miterlimit:4;stroke-dasharray:7.59999999, 15.19999998;stroke-dashoffset:0;stroke-opacity:1;color-rendering:auto;image-rendering:auto;shape-rendering:auto;text-rendering:auto;enable-background:accumulate"
         inkscape:connector-curvature="0" />
      <path
         id="path4463"
         d="m 189.09375,719.70117 -0.83984,0.45508 -0.0195,0.01 -0.0176,0.01 -2.64258,1.50195 -0.0176,0.0117 -0.0176,0.0117 -2.60547,1.55664 -0.0176,0.0117 -0.0176,0.01 -0.48242,0.30273 2.02148,3.2168 0.44531,-0.2793 0.008,-0.006 0.0273,-0.0156 2.57031,-1.53711 2.57031,-1.46094 0.0352,-0.0195 0.80664,-0.43555 -1.80664,-3.34375 z m -19.31641,12.66992 -1.86328,1.4668 -0.0137,0.0137 -0.0156,0.0117 -2.32813,1.91406 -0.0156,0.0117 -0.0156,0.0137 -1.67969,1.44336 2.47461,2.88282 1.65039,-1.41797 0.0293,-0.0234 2.26562,-1.86523 0.0137,-0.01 0.0176,-0.0137 1.83203,-1.44141 -2.35157,-2.98633 z m -17.01562,15.55274 -0.41797,0.4414 -0.0137,0.0156 -0.0137,0.0156 -2.01368,2.2168 -0.0137,0.0156 -0.0117,0.0137 -1.96484,2.25976 -0.0137,0.0156 -0.0117,0.0156 -0.64063,0.76758 2.91602,2.4336 0.64258,-0.76758 1.91211,-2.19922 0.006,-0.006 0.0215,-0.0254 1.95899,-2.16016 0.0254,-0.0293 0.39257,-0.41211 -2.75976,-2.61133 z m -14.37695,18.07031 -0.95508,1.41992 -0.01,0.0176 -0.0117,0.0156 -1.60742,2.50585 -0.01,0.0176 -0.0117,0.0176 -1.51758,2.48047 3.24023,1.98437 1.51758,-2.48046 1.56445,-2.43946 0.008,-0.0117 0.0137,-0.0215 0.93359,-1.39062 -3.15429,-2.11524 z m -11.32227,20.12891 -1.09766,2.4414 -0.008,0.0176 -0.008,0.0215 -1.1543,2.72656 -0.01,0.0195 -0.006,0.0195 -0.72461,1.82031 3.52929,1.4043 0.71094,-1.78125 0,-0.002 0.0137,-0.0371 1.14063,-2.68946 1.07812,-2.40625 -3.46484,-1.55468 z m -7.83984,21.6914 -0.15625,0.56836 -0.004,0.0215 -0.006,0.0195 -0.7207,2.86719 -0.006,0.0215 -0.004,0.0234 -0.65429,2.88281 -0.004,0.0195 -0.004,0.0215 -0.21875,1.07617 3.72461,0.75586 0.20899,-1.03516 0.64453,-2.83984 0.0117,-0.043 0.69726,-2.78321 0.002,-0.006 0.008,-0.0371 0.14453,-0.52539 -3.66406,-1.00782 z m -3.98047,22.77344 -0.12305,1.4668 -0.002,0.0215 0,0.0234 -0.17578,2.96484 -0.002,0.0234 0,0.0234 -0.10547,2.97265 -0.002,0.0234 0,0.0215 -0.004,0.18554 3.80079,0.041 0.002,-0.13672 0.002,-0.0469 0.10157,-2.88086 0,-0.008 0.002,-0.0391 0.16992,-2.87305 0.004,-0.0371 0,-0.01 0.11914,-1.41992 -3.78711,-0.31641 z m 3.99609,22.71094 -3.77734,0.42773 0.28906,2.57813 0.004,0.0234 0.004,0.0215 0.41602,2.99805 0.002,0.0254 0.004,0.0234 0.32031,1.95313 3.74805,-0.61523 -0.31055,-1.90821 -0.006,-0.0254 -0.002,-0.0195 -0.40235,-2.9043 -0.006,-0.0469 -0.2832,-2.53125 z m 4.41797,21.98828 -3.64258,1.08789 0.35547,1.19141 0.01,0.0234 0.006,0.0215 0.9707,2.97265 0.008,0.0215 0.01,0.0215 0.88086,2.48828 0.008,0.0195 0.01,0.0215 0.2129,0.55664 3.54687,-1.35742 -0.19531,-0.51367 -0.006,-0.0117 -0.0117,-0.0312 -0.86524,-2.44141 -0.9414,-2.8789 -0.008,-0.0273 -0.008,-0.0215 -0.33984,-1.14258 z m 181.89844,7.80273 -0.11914,1.19336 -0.21875,1.73242 -0.002,0.006 -0.28515,1.82422 -0.31446,1.71875 -0.008,0.0391 -0.002,0.0117 -0.16406,0.77735 3.71679,0.78515 0.17774,-0.82617 0.006,-0.0273 0.004,-0.0234 0.33399,-1.82031 0.004,-0.0254 0.004,-0.0273 0.28516,-1.82617 0.002,-0.0273 0.004,-0.0254 0.23437,-1.83789 0.004,-0.0274 0,-0.0254 0.11718,-1.19336 -3.77929,-0.375 z m -173.33789,12.83985 -3.32227,1.84961 1.25781,2.25781 0.0117,0.0215 0.01,0.0195 1.32617,2.25586 0.0117,0.0176 0.01,0.0195 1.25977,2.03711 3.23242,-2 -1.23828,-1.99804 -0.01,-0.0195 -0.0137,-0.0195 -1.27929,-2.17968 -0.0137,-0.0234 -0.008,-0.0137 -1.23437,-2.22461 z m 167.64453,8.54101 -0.24024,0.56446 -1.57617,3.26953 -1.51562,2.78906 3.33984,1.81445 1.5332,-2.82422 0.0234,-0.0391 0.0176,-0.041 1.62305,-3.36329 0.0215,-0.0391 0.0176,-0.0449 0.25391,-0.59961 -3.49805,-1.48633 z m -155.04883,9.99805 -2.92773,2.41992 0.42773,0.51953 0.0137,0.0156 0.0137,0.0156 1.70118,1.96875 0.0156,0.0156 0.0137,0.0156 1.7461,1.92774 0.0137,0.0156 0.0137,0.0176 1.1875,1.25195 2.75977,-2.61328 -1.16016,-1.22265 -0.0273,-0.0312 -1.6875,-1.86328 -0.0195,-0.0215 -0.01,-0.01 -1.64453,-1.90429 -0.0273,-0.0312 -0.40234,-0.48633 z m 143.24609,8.79883 -0.2207,0.27344 -2.4668,2.77734 -0.0156,0.0176 -2.32813,2.39648 2.72657,2.64649 2.38476,-2.45899 0.0312,-0.0293 0.0274,-0.0332 2.51367,-2.83008 0.0273,-0.0312 0.0273,-0.0332 0.24415,-0.30273 -2.95118,-2.39258 z m -127.26757,6.86914 -2.38086,2.96289 0.93945,0.75586 0.0176,0.0137 0.0176,0.0137 2.04687,1.57031 0.0176,0.0137 0.0176,0.0117 2.08203,1.52148 0.0176,0.0137 0.0176,0.0137 1.01172,0.70508 2.17188,-3.11914 -0.97656,-0.67969 -0.0371,-0.0254 -2.04297,-1.49804 -1.98047,-1.51758 -0.01,-0.008 -0.0234,-0.0176 -0.90625,-0.73047 z m 110.81836,8.07812 -0.27149,0.19336 -3.07617,2.00391 -0.0176,0.01 -2.93359,1.7246 1.92773,3.2754 2.94922,-1.73243 0.0371,-0.0215 0.0371,-0.0234 3.18945,-2.07812 0.0352,-0.0215 0.0351,-0.0254 0.30274,-0.21875 -2.21484,-3.08594 z m -92.04493,4.07032 -1.71289,3.39062 1.37305,0.69336 0.0195,0.01 0.0215,0.01 2.3086,1.09766 0.0215,0.01 0.0215,0.01 2.33398,1.03906 0.0215,0.01 0.0215,0.01 0.875,0.36719 1.46289,-3.51172 -0.87891,-0.36523 -2.24804,-1.00196 -0.0156,-0.006 -0.0273,-0.0117 -2.26563,-1.07813 -1.33203,-0.67187 z m 72.24805,5.88281 -1.93359,0.64453 -2.54102,0.76758 -0.0176,0.004 -0.0371,0.0117 -2.48828,0.66992 -0.0137,0.004 -0.041,0.0117 -0.0469,0.01 0.88086,3.69531 0.0996,-0.0234 0.0273,-0.006 0.0274,-0.01 2.59765,-0.69922 0.0254,-0.006 0.0273,-0.008 2.5957,-0.78321 0.0254,-0.006 0.0273,-0.01 1.98828,-0.66407 -1.20312,-3.60351 z m -51.35547,1.98437 -0.91406,3.68946 1.64258,0.40625 0.0254,0.004 0.0234,0.008 2.48632,0.54687 0.0254,0.004 0.0273,0.006 2.50195,0.48047 0.0234,0.004 0.0254,0.006 0.80078,0.13086 0.61914,-3.74805 -0.75195,-0.125 -2.50391,-0.48047 0,0.002 -2.39062,-0.52735 -0.0234,-0.006 -0.0234,-0.004 -1.59375,-0.39649 z m 29.52735,2.5586 -0.50196,0.043 -2.48047,0.14648 -2.52929,0.0781 -0.0215,0.002 -0.0312,0 -1.86328,0.004 0.008,3.79882 1.91797,-0.004 0.0254,0 0.0293,-0.002 2.58203,-0.0781 0.0254,-0.002 0.0293,0 2.58789,-0.1543 0.0273,-0.002 0.0254,-0.002 0.50391,-0.0449 -0.33398,-3.7832 z"
         style="color:#000000;font-style:normal;font-variant:normal;font-weight:normal;font-stretch:normal;font-size:medium;line-height:normal;font-family:sans-serif;text-indent:0;text-align:start;text-decoration:none;text-decoration-line:none;text-decoration-style:solid;text-decoration-color:#000000;letter-spacing:normal;word-spacing:normal;text-transform:none;direction:ltr;block-progression:tb;writing-mode:lr-tb;baseline-shift:baseline;text-anchor:start;white-space:normal;clip-rule:nonzero;display:inline;overflow:visible;visibility:visible;opacity:1;isolation:auto;mix-blend-mode:normal;color-interpolation:sRGB;color-interpolation-filters:linearRGB;solid-color:#000000;solid-opacity:1;fill:#ffffff;fill-opacity:1;fill-rule:evenodd;stroke:none;stroke-width:3.79999995;stroke-linecap:butt;stroke-linejoin:miter;stroke-miterlimit:4;stroke-dasharray:7.59999999, 15.19999998;stroke-dashoffset:0;stroke-opacity:1;color-rendering:auto;image-rendering:auto;shape-rendering:auto;text-rendering:auto;enable-background:accumulate"
         inkscape:connector-curvature="0" />
    </g>
  </g>
</svg>
